<!DOCTYPE svg PUBLIC "-//W3C//DTD SVG 1.1//EN" "http://www.w3.org/Graphics/SVG/1.1/DTD/svg11.dtd">
<!-- Uploaded to: SVG Repo, www.svgrepo.com, Transformed by: SVG Repo Mixer Tools -->
<svg width="800px" height="800px" viewBox="-2.8 -2.8 25.60 25.60" version="1.1" xmlns="http://www.w3.org/2000/svg" xmlns:xlink="http://www.w3.org/1999/xlink" fill="#1e8ca0" stroke="#1e8ca0">
<g id="SVGRepo_bgCarrier" stroke-width="0" transform="translate(0,0), scale(1)">
<rect x="-2.8" y="-2.8" width="25.60" height="25.60" rx="12.8" fill="#1e8ca0" strokewidth="0"/>
</g>
<g id="SVGRepo_tracerCarrier" stroke-linecap="round" stroke-linejoin="round" stroke="#0a6464" stroke-width="0.12"/>
<g id="SVGRepo_iconCarrier"> <title>image_picture [#e0fdff]</title> <desc>Created with Sketch.</desc> <defs> </defs> <g id="Page-1" stroke-width="0.0002" fill="none" fill-rule="evenodd"> <g id="Dribbble-Light-Preview" transform="translate(-420.000000, -3881.000000)" fill="#e0fdff"> <g id="icons" transform="translate(56.000000, 160.000000)"> <path d="M376.083,3725.667 C376.083,3724.562 376.978,3723.667 378.083,3723.667 C379.188,3723.667 380.083,3724.562 380.083,3725.667 C380.083,3726.772 379.188,3727.667 378.083,3727.667 C376.978,3727.667 376.083,3726.772 376.083,3725.667 L376.083,3725.667 Z M382,3733.086 L377.987,3729.074 L377.971,3729.089 L377.955,3729.074 L376.525,3730.504 L371.896,3725.876 L371.881,3725.892 L371.865,3725.876 L366,3731.741 L366,3723 L382,3723 L382,3733.086 Z M364,3737 L384,3737 L384,3721 L364,3721 L364,3737 Z" id="image_picture-[#e0fdff]"> </path> </g> </g> </g> </g>
</svg>