<?xml version="1.0" encoding="UTF-8"?>
<svg xmlns="http://www.w3.org/2000/svg" version="1.1" viewBox="0 0 1258.08 477.6">
  <defs>
    <style>
      .cls-1 {
        fill: #ed2024;
      }

      .cls-1, .cls-2, .cls-3 {
        fill-rule: evenodd;
      }

      .cls-2 {
        fill: #787878;
      }
    </style>
  </defs>
  <!-- Generator: Adobe Illustrator 28.7.5, SVG Export Plug-In . SVG Version: 1.2.0 Build 176)  -->
  <g>
    <g id="Layer_1">
      <path class="cls-1" d="M1109.04,296.4v2.4c-58.87.08-117.77.16-176.64.24,25.76,53.11,51.52,106.25,77.28,159.36-.64.32-1.28.64-1.92.96l-.48-.24c-25.84-53.43-51.68-106.89-77.52-160.32H13.44v-2.4h914.88v-.24c-42.8-88.23-85.6-176.49-128.4-264.72.64-.32,1.28-.64,1.92-.96l.48.24c42.88,88.55,85.76,177.13,128.64,265.68h178.08Z"/>
      <path class="cls-2" d="M932.16,103.2h59.04c9.87,0,22.15-1.29,30.48.96,7.55,2.04,13.42,5.59,18.72,9.84,16.37,13.15,19.39,57.78,1.2,71.52l1.44,1.44c1.44,2.08,2.88,4.16,4.32,6.24,2.87,4.86,4.33,11.05,5.52,17.52.08,5.28.16,10.56.24,15.84,0,27.61-9.3,44.03-30.24,50.4-8.04,2.45-20.56,1.2-30.48,1.2-20.64-.16-41.28-.32-61.92-.48.08-8.08.16-16.16.24-24.24,22.08.16,44.16.32,66.24.48,11.82,0,22.65,1.04,27.6-5.76,3.2-4.4,3.28-9.18,4.32-16.08,1.97-13.06-.23-27.63-7.68-32.4-4.74-3.04-11.47-1.08-18.72-2.16-13.44-.16-26.88-.32-40.32-.48.08-8.08.16-16.16.24-24.24,12.96.08,25.92.16,38.88.24,5.5,0,13.5,1.01,17.76-.72,7.53-3.06,12.79-13.75,10.8-25.92-.7-4.29-1.45-8.41-3.36-11.52-4.97-8.07-15.89-7.44-29.04-7.44-21.84-.08-43.68-.16-65.52-.24.08-8,.16-16,.24-24Z"/>
      <path class="cls-2" d="M1085.52,103.2h24.24v174.48h-24.24V103.2Z"/>
      <path class="cls-2" d="M1114.8,103.2h38.88c8.07,0,16.72-.55,23.52.96,40.8,9.06,71.52,39.84,66.72,93.84-.7,7.89-1.57,15.56-3.6,22.32-4.06,13.52-10.5,23.27-18.24,32.88-11.01,13.67-30.07,20.57-51.12,24.24-18.72.08-37.44.16-56.16.24v-24.24h36.72c8.2,0,16.84.46,23.52-1.2,21.84-5.43,35.73-17.65,42-38.64,1.6-5.35,1.41-10.49,2.4-16.8,1.22-7.8.35-17.85-1.2-24.48-2.25-9.63-5.64-17.99-10.8-24.72-18.19-23.73-51.23-20.48-92.64-20.4v-24Z"/>
      <path class="cls-3" d="M252,105.6h3.84c28.16,56.79,56.32,113.61,84.48,170.4h-20.88c-21.44-43.2-42.88-86.4-64.32-129.6-.96.08-1.92.16-2.88.24-17.92,37.04-35.84,74.08-53.76,111.12h75.6c3.52,6.16,7.04,12.32,10.56,18.48h-116.64c28-56.87,56-113.77,84-170.64Z"/>
      <path class="cls-3" d="M486,105.6h4.32v.24c-28.08,56.87-56.16,113.77-84.24,170.64h-3.6c-28.24-56.79-56.48-113.61-84.72-170.4h21.36c21.28,43.2,42.56,86.4,63.84,129.6h2.88c21.12-43.28,42.24-86.56,63.36-129.84,5.6-.08,11.2-.16,16.8-.24Z"/>
      <path class="cls-3" d="M750.72,105.6h4.08c13.6,27.36,27.2,54.72,40.8,82.08-3.52,7.04-7.04,14.08-10.56,21.12h-.24c-10.16-20.8-20.32-41.6-30.48-62.4h-2.88c-21.04,43.28-42.08,86.56-63.12,129.84h-21.36c27.92-56.87,55.84-113.77,83.76-170.64Z"/>
      <path class="cls-3" d="M815.28,105.6h3.84c28.16,56.79,56.32,113.61,84.48,170.4-5.19.06-17.57,1.25-21.36-.48-25.12-50.87-50.24-101.77-75.36-152.64,2.8-5.76,5.6-11.52,8.4-17.28Z"/>
      <path class="cls-3" d="M519.84,108.48h19.44v145.92h77.04c4.18,0,25.13-1.03,26.88.48.08,5.92.16,11.84.24,17.76h-123.6V108.48Z"/>
      <path class="cls-3" d="M643.44,126.72h-72.24c-2.8-6-5.6-12-8.4-18v-.24h59.52c3.5,0,19.34-.86,20.88.48.08,5.92.16,11.84.24,17.76Z"/>
      <path class="cls-3" d="M643.44,193.92c-26.96-.08-53.92-.16-80.88-.24.08-6.08.16-12.16.24-18.24h59.52c3.5,0,19.34-.86,20.88.48.08,6,.16,12,.24,18Z"/>
    </g>
  </g>
</svg>